{"title":"Ungli 2014 Hindi DVDSCR-Rip x264 MP3-MafiaKing","uid":11597129,"size":748787325,"categoryP":"video","categoryS":"movies","magnet":"?xt=urn:btih:8d1679963d1949fdb4707a271ef71e73b57c04cc&amp;dn=Ungli+2014+Hindi+DVDSCR-Rip+x264+MP3-MafiaKing&amp;tr=udp%3A%2F%2Ftracker.openbittorrent.com%3A80&amp;tr=udp%3A%2F%2Fopen.demonii.com%3A1337&amp;tr=udp%3A%2F%2Ftracker.coppersurfer.tk%3A6969&amp;tr=udp%3A%2F%2Fexodus.desync.com%3A6969","seeders":34,"leechers":8,"uploader":"HeroMaster","files":-1,"time":1417295675,"description":":::::::::: TEAM TELLYTNT AND MAFIAKING PRESENTS :::::::::\n\n &lt;a href=&quot;\nhttp://i.imgur.com/HsKKknz.png&quot; rel=&quot;nofollow&quot; target=&quot;_NEW&quot;&gt;\nhttp://i.imgur.com/HsKKknz.png&lt;/a&gt;\n\n\n:::: Ungli 2014 Hindi DVDSCR-Rip x264 MP3 ::::\n\n\n::Information::\n\n\nGeneral\nFormat : Matroska\nFormat version : Version 4 / Version 2\nFile size : 707 MiB\nDuration : 1h 56mn\nOverall bit rate : 848 Kbps\nWriting library : libebml v1.3.0 + libmatroska v1.4.1\n\n\nVideo\nID : 1\nFormat : AVC\nFormat/Info : Advanced Video Codec\nFormat profile : &lt;a class=&quot;__cf_email__&quot; href=&quot;/cdn-cgi/l/email-protection&quot; data-cfemail=&quot;8dc5e4eae5cdc1b9a3bc&quot;&gt;[email&amp;#160;protected]&lt;/a&gt;&lt;script cf-hash='f9e31' type=&quot;text/javascript&quot;&gt;\n/* &lt;![CDATA[ */!function(){try{var t=&quot;currentScript&quot;in document?document.currentScript:function(){for(var t=document.getElementsByTagName(&quot;script&quot;),e=t.length;e--;)if(t[e].getAttribute(&quot;cf-hash&quot;))return t[e]}();if(t&amp;&amp;t.previousSibling){var e,r,n,i,c=t.previousSibling,a=c.getAttribute(&quot;data-cfemail&quot;);if(a){for(e=&quot;&quot;,r=parseInt(a.substr(0,2),16),n=2;a.length-n;n+=2)i=parseInt(a.substr(n,2),16)^r,e+=String.fromCharCode(i);e=document.createTextNode(e),c.parentNode.replaceChild(e,c)}}}catch(u){}}();/* ]]&gt; */&lt;/script&gt;\nFormat settings, CABAC : Yes\nFormat settings, ReFrames : 4 frames\nCodec ID : V_MPEG4/ISO/AVC\nDuration : 1h 56mn\nBit rate : 750 Kbps\nWidth : 640 pixels\nHeight : 272 pixels\nDisplay aspect ratio : 2.35:1\nFrame rate mode : Constant\nFrame rate : 23.976 fps\nColor space : YUV\nChroma subsampling : 4:2:0\nBit depth : 8 bits\nScan type : Progressive\nBits/(Pixel*Frame) : 0.180\nStream size : 612 MiB (87%)\nTitle : Mafiaking\nLanguage : Hindi\nDefault : Yes\nForced : No\n\n\nAudio\nID : 2\nFormat : MPEG Audio\nFormat version : Version 1\nFormat profile : Layer 3\nMode : Joint stereo\nMode extension : MS Stereo\nCodec ID : A_MPEG/L3\nCodec ID/Hint : MP3\nDuration : 1h 56mn\nBit rate mode : Constant\nBit rate : 96.0 Kbps\nChannel(s) : 2 channels\nSampling rate : 32.0 KHz\nCompression mode : Lossy\nStream size : 80.0 MiB (11%)\nTitle : Mafiaking\nWriting library : LAME3.99r\nLanguage : Hindi\nDefault : Yes\nForced : No\n\n\n::IMDB::\n\n &lt;a href=&quot;\nhttp://www.imdb.com/title/tt2392447/&quot; rel=&quot;nofollow&quot; target=&quot;_NEW&quot;&gt;\nhttp://www.imdb.com/title/tt2392447/&lt;/a&gt;\n\n\n::Greetz and Respect::\n\n\nALL CREDIT GOES TO Mafiaking for Encoding and Distribution.\n\n\n::Movie Quote::\n\n\nJab ghee seedhi aur tedhi dono ungliyon se na  nikle ... toh beech ka rasta apnana padta hai\n\n\n::Poster::\n\n &lt;a href=&quot;\nhttp://i.imgur.com/Xb0SO9w.jpg&quot; rel=&quot;nofollow&quot; target=&quot;_NEW&quot;&gt;\nhttp://i.imgur.com/Xb0SO9w.jpg&lt;/a&gt;\n\n\n::Screenshots::\n\n &lt;a href=&quot;\nhttp://i.imgur.com/MyEo6bg.jpg&quot; rel=&quot;nofollow&quot; target=&quot;_NEW&quot;&gt;\nhttp://i.imgur.com/MyEo6bg.jpg&lt;/a&gt;\n\n &lt;a href=&quot;\nhttp://i.imgur.com/XtjoQig.jpg&quot; rel=&quot;nofollow&quot; target=&quot;_NEW&quot;&gt;\nhttp://i.imgur.com/XtjoQig.jpg&lt;/a&gt;\n\n &lt;a href=&quot;\nhttp://i.imgur.com/g5IaHP6.jpg&quot; rel=&quot;nofollow&quot; target=&quot;_NEW&quot;&gt;\nhttp://i.imgur.com/g5IaHP6.jpg&lt;/a&gt;\n\n\nSEED AND ENJOY!","torrent":{"xt":"urn:btih:8d1679963d1949fdb4707a271ef71e73b57c04cc","amp;dn":"Ungli+2014+Hindi+DVDSCR-Rip+x264+MP3-MafiaKing","amp;tr":["udp%3A%2F%2Ftracker.openbittorrent.com%3A80","udp%3A%2F%2Fopen.demonii.com%3A1337","udp%3A%2F%2Ftracker.coppersurfer.tk%3A6969","udp%3A%2F%2Fexodus.desync.com%3A6969"],"infoHash":"8d1679963d1949fdb4707a271ef71e73b57c04cc","infoHashBuffer":{"type":"Buffer","data":[141,22,121,150,61,25,73,253,180,112,122,39,30,247,30,115,181,124,4,204]},"announce":[],"urlList":[]}}